<svg xmlns="http://www.w3.org/2000/svg" width="150" height="150" viewBox="0 0 1000 1000" version="1"><path fill="#121210" d="M946 785a26 26 0 1 1 0-52 26 26 0 0 1 0 52zM771 919a26 26 0 1 1 0 53 26 26 0 0 1 0-53zm-245 36a26 26 0 1 1-52 0 26 26 0 0 1 52 0zm-295 17a26 26 0 1 1 0-53 26 26 0 0 1 0 53zM81 759a26 26 0 1 1-53 0 26 26 0 0 1 53 0zM45 517a26 26 0 1 1 0-53 26 26 0 0 1 0 53zm9-271a26 26 0 1 1 0-53 26 26 0 0 1 0 53zM233 71a26 26 0 1 1 0-53 26 26 0 0 1 0 53zm537-52a26 26 0 1 1 0 52 26 26 0 0 1 0-52zm149 201a26 26 0 1 1 53 0 26 26 0 0 1-53 0zm36 244a26 26 0 1 1 0 53 26 26 0 0 1 0-53zm0 252V589c0-6-5-10-11-10H780l1-78h132a44 44 0 1 0-1-20H781l1-70-1-14h163c6 0 11-4 11-10V263a44 44 0 1 0-20-1v116H777c-9-28-26-48-48-61l-117-68V55h116a44 44 0 1 0-1-19H603c-6 0-10 4-10 11v190l-5-2c-20-12-40-18-57-17-18 0-27 8-29 7-7-3-21-7-30-7-18 0-37 4-58 16l-3 2V47c0-7-5-11-11-11H276a44 44 0 1 0-1 19h116v193l-117 69c-28 17-43 35-49 61H65V262a44 44 0 1 0-20 1v124c0 6 5 10 11 10h166v84H88a44 44 0 1 0-1 20h135v78H56c-6 0-11 4-11 10v127a44 44 0 1 0 20 1V599h157l-1 14c0 38 14 69 54 91l117 65v166H273a44 44 0 1 0 1 20h127c6 0 10-5 10-11V780l10 6c21 11 40 15 57 15 4 0 8-1 11-3v115a44 44 0 1 0 20 0V796c5 2 9 3 15 3 18 1 38-2 58-13l11-7v165c0 6 4 11 10 11h125a44 44 0 1 0 0-20H613V768l115-67c31-17 51-42 52-88v-14h155v118a44 44 0 1 0 20-1"/><path fill="#fff" d="M486 713c0 7-1 14-3 18-5 9-16 12-25 7l-63-35-3-2-88-51c-14-9-24-21-24-49l1-179c-1-30 9-46 23-55l88-50 3-3 63-34c9-5 20-2 25 7 2 4 3 11 3 18v174h-70v-79c0-4-2-20-24-8l-46 25v184l46 25c22 11 24-4 24-8v-79h70v174"/><path fill="none" stroke="#fff200" stroke-miterlimit="10" stroke-width="3" d="M5544 2536c2-26-2-53-12-71a74 74 0 0 0-100-28l-248 138-13 10-349 201c-58 37-95 85-94 197v712c-4 119 38 185 94 218l349 201 13 10 248 138c36 20 81 7 100-29 10-17 14-44 12-70v-695h-277v317c0 15-8 76-97 30l-182-101v-731l182-99c89-46 96 14 97 30v317h277z" transform="matrix(.25148 0 0 -.25117 -908 1350)"/><path fill="#fff" d="M655 481h-70v-98l70 32zm0 123l-70 32v-98h70zm45-236l-159-89c-11-6-25 2-25 14v431c0 12 13 21 26 15l159-92c13-8 17-16 17-34l2-212c0-13-6-25-20-33"/><path fill="none" stroke="#fff200" stroke-miterlimit="10" stroke-width="3" d="M6215 3462h-276v389l276-128zm0-490l-276-130v391h276zm181 938l-634 354c-44 24-96-7-96-57V2494c0-50 48-83 103-59l631 366c52 32 67 61 68 135l7 844c0 49-23 97-79 130z" transform="matrix(.25148 0 0 -.25117 -908 1350)"/><path fill="#121210" d="M585 636l70-32v-66h-70v98M585 481h70v-66l-70-32v98"/></svg>